<?xml version="1.0" encoding="UTF-8"?>
<svg width="32" height="32" viewBox="0 0 32 32" xmlns="http://www.w3.org/2000/svg">
  <rect width="32" height="32" fill="white"/>
  <g transform="translate(4, 8)">
    <path d="M2 8h4v2H2V8zm0 3h3v2H2v-2zm0 3h2v2H2v-2z" fill="#2563EB"/>
    <path d="M8 4h12c2 0 4 2 4 4v8c0 2-2 4-4 4H8c-2 0-4-2-4-4V8c0-2 2-4 4-4z" fill="#2563EB"/>
    <circle cx="10" cy="16" r="2" fill="white"/>
    <circle cx="18" cy="16" r="2" fill="white"/>
    <rect x="14" y="6" width="4" height="3" rx="1" fill="white"/>
  </g>
</svg>